<svg width="191" height="30" viewBox="0 0 191 30" fill="none" xmlns="http://www.w3.org/2000/svg">
<g filter="url(#filter0_d_0_737)">
<mask id="path-1-outside-1_0_737" maskUnits="userSpaceOnUse" x="-1.02985" y="-1.02637" width="190" height="29" fill="black">
<rect fill="white" x="-1.02985" y="-1.02637" width="190" height="29"/>
<path d="M8.52482 0.898116V3.96859H11.6912V6.81517H12.8747V3.96859H16.0411V0.898116H23.8132V25.9736H16.0411V15.3229H14.6338V18.0736H9.70823V15.3229H8.52482V25.9736H0.528801V0.898116H8.52482ZM27.5104 24.2465C27.5104 23.4576 27.7023 22.9032 28.0861 22.5833C28.4699 22.2635 28.9283 22.1036 29.4614 22.1036C30.0158 22.1036 30.4849 22.2635 30.8687 22.5833C31.2738 22.9032 31.4764 23.4576 31.4764 24.2465C31.4764 25.0141 31.2738 25.5685 30.8687 25.9097C30.4849 26.2508 30.0158 26.4214 29.4614 26.4214C28.9283 26.4214 28.4699 26.2508 28.0861 25.9097C27.7023 25.5685 27.5104 25.0141 27.5104 24.2465ZM34.9492 22.9032V3.96859H38.0196V0.898116H55.291V7.51882H43.0411V19.3529H55.291V25.9736H38.0196V22.9032H34.9492ZM94.7946 0.898116V7.51882H81.7451V19.257H88.1739V14.7152H94.7946V25.9736H73.4612V0.898116H94.7946ZM116.139 0.898116V25.9736H107.951V19.257H105.169V25.9736H96.9808V0.898116H116.139ZM103.697 13.9156H104.785V12.5403H108.335V13.9156H109.423V9.69374H107.951V8.19049H105.169V9.69374H103.697V13.9156ZM102.098 7.61477H104.689V5.24795H102.098V7.61477ZM108.431 7.61477H110.99V5.24795H108.431V7.61477ZM126.685 0.898116V3.96859H129.052V7.42287H133.401V3.96859H135.768V0.898116H143.764V25.9736H135.768V15.3229H134.201V18.2655H128.252V15.3229H126.685V25.9736H118.689V0.898116H126.685ZM165.298 0.898116V7.51882H154.615V10.0775H165.298V16.7942H154.615V19.3529H165.298V25.9736H146.331V0.898116H165.298ZM179.307 19.3529V16.7942H167.664V0.898116H187.399V7.51882H175.756V10.0775H187.399V25.9736H167.664V19.3529H179.307Z"/>
</mask>
<path d="M8.52482 0.898116V3.96859H11.6912V6.81517H12.8747V3.96859H16.0411V0.898116H23.8132V25.9736H16.0411V15.3229H14.6338V18.0736H9.70823V15.3229H8.52482V25.9736H0.528801V0.898116H8.52482ZM27.5104 24.2465C27.5104 23.4576 27.7023 22.9032 28.0861 22.5833C28.4699 22.2635 28.9283 22.1036 29.4614 22.1036C30.0158 22.1036 30.4849 22.2635 30.8687 22.5833C31.2738 22.9032 31.4764 23.4576 31.4764 24.2465C31.4764 25.0141 31.2738 25.5685 30.8687 25.9097C30.4849 26.2508 30.0158 26.4214 29.4614 26.4214C28.9283 26.4214 28.4699 26.2508 28.0861 25.9097C27.7023 25.5685 27.5104 25.0141 27.5104 24.2465ZM34.9492 22.9032V3.96859H38.0196V0.898116H55.291V7.51882H43.0411V19.3529H55.291V25.9736H38.0196V22.9032H34.9492ZM94.7946 0.898116V7.51882H81.7451V19.257H88.1739V14.7152H94.7946V25.9736H73.4612V0.898116H94.7946ZM116.139 0.898116V25.9736H107.951V19.257H105.169V25.9736H96.9808V0.898116H116.139ZM103.697 13.9156H104.785V12.5403H108.335V13.9156H109.423V9.69374H107.951V8.19049H105.169V9.69374H103.697V13.9156ZM102.098 7.61477H104.689V5.24795H102.098V7.61477ZM108.431 7.61477H110.99V5.24795H108.431V7.61477ZM126.685 0.898116V3.96859H129.052V7.42287H133.401V3.96859H135.768V0.898116H143.764V25.9736H135.768V15.3229H134.201V18.2655H128.252V15.3229H126.685V25.9736H118.689V0.898116H126.685ZM165.298 0.898116V7.51882H154.615V10.0775H165.298V16.7942H154.615V19.3529H165.298V25.9736H146.331V0.898116H165.298ZM179.307 19.3529V16.7942H167.664V0.898116H187.399V7.51882H175.756V10.0775H187.399V25.9736H167.664V19.3529H179.307Z" fill="#AEAEAE"/>
<path d="M8.52482 0.898116H9.52432V-0.101386H8.52482V0.898116ZM8.52482 3.96859H7.52532V4.96809H8.52482V3.96859ZM11.6912 3.96859H12.6907V2.96909H11.6912V3.96859ZM11.6912 6.81517H10.6917V7.81467H11.6912V6.81517ZM12.8747 6.81517V7.81467H13.8742V6.81517H12.8747ZM12.8747 3.96859V2.96909H11.8752V3.96859H12.8747ZM16.0411 3.96859V4.96809H17.0406V3.96859H16.0411ZM16.0411 0.898116V-0.101386H15.0416V0.898116H16.0411ZM23.8132 0.898116H24.8127V-0.101386H23.8132V0.898116ZM23.8132 25.9736V26.9731H24.8127V25.9736H23.8132ZM16.0411 25.9736H15.0416V26.9731H16.0411V25.9736ZM16.0411 15.3229H17.0406V14.3234H16.0411V15.3229ZM14.6338 15.3229V14.3234H13.6343V15.3229H14.6338ZM14.6338 18.0736V19.0731H15.6333V18.0736H14.6338ZM9.70823 18.0736H8.70873V19.0731H9.70823V18.0736ZM9.70823 15.3229H10.7077V14.3234H9.70823V15.3229ZM8.52482 15.3229V14.3234H7.52532V15.3229H8.52482ZM8.52482 25.9736V26.9731H9.52432V25.9736H8.52482ZM0.528801 25.9736H-0.470701V26.9731H0.528801V25.9736ZM0.528801 0.898116V-0.101386H-0.470701V0.898116H0.528801ZM7.52532 0.898116V3.96859H9.52432V0.898116H7.52532ZM8.52482 4.96809H11.6912V2.96909H8.52482V4.96809ZM10.6917 3.96859V6.81517H12.6907V3.96859H10.6917ZM11.6912 7.81467H12.8747V5.81567H11.6912V7.81467ZM13.8742 6.81517V3.96859H11.8752V6.81517H13.8742ZM12.8747 4.96809H16.0411V2.96909H12.8747V4.96809ZM17.0406 3.96859V0.898116H15.0416V3.96859H17.0406ZM16.0411 1.89762H23.8132V-0.101386H16.0411V1.89762ZM22.8137 0.898116V25.9736H24.8127V0.898116H22.8137ZM23.8132 24.9741H16.0411V26.9731H23.8132V24.9741ZM17.0406 25.9736V15.3229H15.0416V25.9736H17.0406ZM16.0411 14.3234H14.6338V16.3224H16.0411V14.3234ZM13.6343 15.3229V18.0736H15.6333V15.3229H13.6343ZM14.6338 17.0741H9.70823V19.0731H14.6338V17.0741ZM10.7077 18.0736V15.3229H8.70873V18.0736H10.7077ZM9.70823 14.3234H8.52482V16.3224H9.70823V14.3234ZM7.52532 15.3229V25.9736H9.52432V15.3229H7.52532ZM8.52482 24.9741H0.528801V26.9731H8.52482V24.9741ZM1.5283 25.9736V0.898116H-0.470701V25.9736H1.5283ZM0.528801 1.89762H8.52482V-0.101386H0.528801V1.89762ZM30.8687 22.5833L30.2288 23.3512L30.239 23.3596L30.2494 23.3678L30.8687 22.5833ZM30.8687 25.9097L30.2249 25.1451L30.2147 25.1537L30.2047 25.1626L30.8687 25.9097ZM28.0861 25.9097L27.422 26.6567L28.0861 25.9097ZM28.5099 24.2465C28.5099 23.583 28.675 23.3936 28.7259 23.3512L27.4462 21.8155C26.7295 22.4127 26.5109 23.3321 26.5109 24.2465H28.5099ZM28.7259 23.3512C28.9176 23.1915 29.1453 23.1031 29.4614 23.1031V21.1041C28.7114 21.1041 28.0222 21.3355 27.4462 21.8155L28.7259 23.3512ZM29.4614 23.1031C29.8093 23.1031 30.0446 23.1976 30.2288 23.3512L31.5086 21.8155C30.9252 21.3293 30.2222 21.1041 29.4614 21.1041V23.1031ZM30.2494 23.3678C30.3095 23.4153 30.4769 23.5987 30.4769 24.2465H32.4759C32.4759 23.3164 32.2382 22.391 31.488 21.7988L30.2494 23.3678ZM30.4769 24.2465C30.4769 24.8557 30.3176 25.067 30.2249 25.1451L31.5125 26.6742C32.23 26.07 32.4759 25.1725 32.4759 24.2465H30.4769ZM30.2047 25.1626C30.019 25.3276 29.7921 25.4219 29.4614 25.4219V27.4209C30.2394 27.4209 30.9508 27.174 31.5327 26.6567L30.2047 25.1626ZM29.4614 25.4219C29.1629 25.4219 28.9435 25.3345 28.7501 25.1626L27.422 26.6567C27.9963 27.1672 28.6938 27.4209 29.4614 27.4209V25.4219ZM28.7501 25.1626C28.667 25.0887 28.5099 24.871 28.5099 24.2465H26.5109C26.5109 25.1572 26.7376 26.0483 27.422 26.6567L28.7501 25.1626ZM34.9492 22.9032H33.9497V23.9027H34.9492V22.9032ZM34.9492 3.96859V2.96909H33.9497V3.96859H34.9492ZM38.0196 3.96859V4.96809H39.0191V3.96859H38.0196ZM38.0196 0.898116V-0.101386H37.0201V0.898116H38.0196ZM55.291 0.898116H56.2905V-0.101386H55.291V0.898116ZM55.291 7.51882V8.51832H56.2905V7.51882H55.291ZM43.0411 7.51882V6.51932H42.0416V7.51882H43.0411ZM43.0411 19.3529H42.0416V20.3524H43.0411V19.3529ZM55.291 19.3529H56.2905V18.3534H55.291V19.3529ZM55.291 25.9736V26.9731H56.2905V25.9736H55.291ZM38.0196 25.9736H37.0201V26.9731H38.0196V25.9736ZM38.0196 22.9032H39.0191V21.9037H38.0196V22.9032ZM35.9487 22.9032V3.96859H33.9497V22.9032H35.9487ZM34.9492 4.96809H38.0196V2.96909H34.9492V4.96809ZM39.0191 3.96859V0.898116H37.0201V3.96859H39.0191ZM38.0196 1.89762H55.291V-0.101386H38.0196V1.89762ZM54.2915 0.898116V7.51882H56.2905V0.898116H54.2915ZM55.291 6.51932H43.0411V8.51832H55.291V6.51932ZM42.0416 7.51882V19.3529H44.0406V7.51882H42.0416ZM43.0411 20.3524H55.291V18.3534H43.0411V20.3524ZM54.2915 19.3529V25.9736H56.2905V19.3529H54.2915ZM55.291 24.9741H38.0196V26.9731H55.291V24.9741ZM39.0191 25.9736V22.9032H37.0201V25.9736H39.0191ZM38.0196 21.9037H34.9492V23.9027H38.0196V21.9037ZM94.7946 0.898116H95.7941V-0.101386H94.7946V0.898116ZM94.7946 7.51882V8.51832H95.7941V7.51882H94.7946ZM81.7451 7.51882V6.51932H80.7456V7.51882H81.7451ZM81.7451 19.257H80.7456V20.2565H81.7451V19.257ZM88.1739 19.257V20.2565H89.1734V19.257H88.1739ZM88.1739 14.7152V13.7157H87.1744V14.7152H88.1739ZM94.7946 14.7152H95.7941V13.7157H94.7946V14.7152ZM94.7946 25.9736V26.9731H95.7941V25.9736H94.7946ZM73.4612 25.9736H72.4617V26.9731H73.4612V25.9736ZM73.4612 0.898116V-0.101386H72.4617V0.898116H73.4612ZM93.7951 0.898116V7.51882H95.7941V0.898116H93.7951ZM94.7946 6.51932H81.7451V8.51832H94.7946V6.51932ZM80.7456 7.51882V19.257H82.7446V7.51882H80.7456ZM81.7451 20.2565H88.1739V18.2575H81.7451V20.2565ZM89.1734 19.257V14.7152H87.1744V19.257H89.1734ZM88.1739 15.7147H94.7946V13.7157H88.1739V15.7147ZM93.7951 14.7152V25.9736H95.7941V14.7152H93.7951ZM94.7946 24.9741H73.4612V26.9731H94.7946V24.9741ZM74.4607 25.9736V0.898116H72.4617V25.9736H74.4607ZM73.4612 1.89762H94.7946V-0.101386H73.4612V1.89762ZM116.139 0.898116H117.139V-0.101386H116.139V0.898116ZM116.139 25.9736V26.9731H117.139V25.9736H116.139ZM107.951 25.9736H106.952V26.9731H107.951V25.9736ZM107.951 19.257H108.951V18.2575H107.951V19.257ZM105.169 19.257V18.2575H104.169V19.257H105.169ZM105.169 25.9736V26.9731H106.168V25.9736H105.169ZM96.9808 25.9736H95.9813V26.9731H96.9808V25.9736ZM96.9808 0.898116V-0.101386H95.9813V0.898116H96.9808ZM103.697 13.9156H102.698V14.9151H103.697V13.9156ZM104.785 13.9156V14.9151H105.784V13.9156H104.785ZM104.785 12.5403V11.5408H103.785V12.5403H104.785ZM108.335 12.5403H109.335V11.5408H108.335V12.5403ZM108.335 13.9156H107.336V14.9151H108.335V13.9156ZM109.423 13.9156V14.9151H110.422V13.9156H109.423ZM109.423 9.69374H110.422V8.69424H109.423V9.69374ZM107.951 9.69374H106.952V10.6932H107.951V9.69374ZM107.951 8.19049H108.951V7.19098H107.951V8.19049ZM105.169 8.19049V7.19098H104.169V8.19049H105.169ZM105.169 9.69374V10.6932H106.168V9.69374H105.169ZM103.697 9.69374V8.69424H102.698V9.69374H103.697ZM102.098 7.61477H101.099V8.61428H102.098V7.61477ZM104.689 7.61477V8.61428H105.688V7.61477H104.689ZM104.689 5.24795H105.688V4.24845H104.689V5.24795ZM102.098 5.24795V4.24845H101.099V5.24795H102.098ZM108.431 7.61477H107.432V8.61428H108.431V7.61477ZM110.99 7.61477V8.61428H111.989V7.61477H110.99ZM110.99 5.24795H111.989V4.24845H110.99V5.24795ZM108.431 5.24795V4.24845H107.432V5.24795H108.431ZM115.14 0.898116V25.9736H117.139V0.898116H115.14ZM116.139 24.9741H107.951V26.9731H116.139V24.9741ZM108.951 25.9736V19.257H106.952V25.9736H108.951ZM107.951 18.2575H105.169V20.2565H107.951V18.2575ZM104.169 19.257V25.9736H106.168V19.257H104.169ZM105.169 24.9741H96.9808V26.9731H105.169V24.9741ZM97.9803 25.9736V0.898116H95.9813V25.9736H97.9803ZM96.9808 1.89762H116.139V-0.101386H96.9808V1.89762ZM103.697 14.9151H104.785V12.9161H103.697V14.9151ZM105.784 13.9156V12.5403H103.785V13.9156H105.784ZM104.785 13.5398H108.335V11.5408H104.785V13.5398ZM107.336 12.5403V13.9156H109.335V12.5403H107.336ZM108.335 14.9151H109.423V12.9161H108.335V14.9151ZM110.422 13.9156V9.69374H108.423V13.9156H110.422ZM109.423 8.69424H107.951V10.6932H109.423V8.69424ZM108.951 9.69374V8.19049H106.952V9.69374H108.951ZM107.951 7.19098H105.169V9.18999H107.951V7.19098ZM104.169 8.19049V9.69374H106.168V8.19049H104.169ZM105.169 8.69424H103.697V10.6932H105.169V8.69424ZM102.698 9.69374V13.9156H104.697V9.69374H102.698ZM102.098 8.61428H104.689V6.61527H102.098V8.61428ZM105.688 7.61477V5.24795H103.689V7.61477H105.688ZM104.689 4.24845H102.098V6.24745H104.689V4.24845ZM101.099 5.24795V7.61477H103.098V5.24795H101.099ZM108.431 8.61428H110.99V6.61527H108.431V8.61428ZM111.989 7.61477V5.24795H109.99V7.61477H111.989ZM110.99 4.24845H108.431V6.24745H110.99V4.24845ZM107.432 5.24795V7.61477H109.431V5.24795H107.432ZM126.685 0.898116H127.684V-0.101386H126.685V0.898116ZM126.685 3.96859H125.685V4.96809H126.685V3.96859ZM129.052 3.96859H130.051V2.96909H129.052V3.96859ZM129.052 7.42287H128.052V8.42237H129.052V7.42287ZM133.401 7.42287V8.42237H134.401V7.42287H133.401ZM133.401 3.96859V2.96909H132.402V3.96859H133.401ZM135.768 3.96859V4.96809H136.768V3.96859H135.768ZM135.768 0.898116V-0.101386H134.769V0.898116H135.768ZM143.764 0.898116H144.764V-0.101386H143.764V0.898116ZM143.764 25.9736V26.9731H144.764V25.9736H143.764ZM135.768 25.9736H134.769V26.9731H135.768V25.9736ZM135.768 15.3229H136.768V14.3234H135.768V15.3229ZM134.201 15.3229V14.3234H133.201V15.3229H134.201ZM134.201 18.2655V19.265H135.201V18.2655H134.201ZM128.252 18.2655H127.252V19.265H128.252V18.2655ZM128.252 15.3229H129.251V14.3234H128.252V15.3229ZM126.685 15.3229V14.3234H125.685V15.3229H126.685ZM126.685 25.9736V26.9731H127.684V25.9736H126.685ZM118.689 25.9736H117.689V26.9731H118.689V25.9736ZM118.689 0.898116V-0.101386H117.689V0.898116H118.689ZM125.685 0.898116V3.96859H127.684V0.898116H125.685ZM126.685 4.96809H129.052V2.96909H126.685V4.96809ZM128.052 3.96859V7.42287H130.051V3.96859H128.052ZM129.052 8.42237H133.401V6.42337H129.052V8.42237ZM134.401 7.42287V3.96859H132.402V7.42287H134.401ZM133.401 4.96809H135.768V2.96909H133.401V4.96809ZM136.768 3.96859V0.898116H134.769V3.96859H136.768ZM135.768 1.89762H143.764V-0.101386H135.768V1.89762ZM142.765 0.898116V25.9736H144.764V0.898116H142.765ZM143.764 24.9741H135.768V26.9731H143.764V24.9741ZM136.768 25.9736V15.3229H134.769V25.9736H136.768ZM135.768 14.3234H134.201V16.3224H135.768V14.3234ZM133.201 15.3229V18.2655H135.201V15.3229H133.201ZM134.201 17.266H128.252V19.265H134.201V17.266ZM129.251 18.2655V15.3229H127.252V18.2655H129.251ZM128.252 14.3234H126.685V16.3224H128.252V14.3234ZM125.685 15.3229V25.9736H127.684V15.3229H125.685ZM126.685 24.9741H118.689V26.9731H126.685V24.9741ZM119.688 25.9736V0.898116H117.689V25.9736H119.688ZM118.689 1.89762H126.685V-0.101386H118.689V1.89762ZM165.298 0.898116H166.297V-0.101386H165.298V0.898116ZM165.298 7.51882V8.51832H166.297V7.51882H165.298ZM154.615 7.51882V6.51932H153.616V7.51882H154.615ZM154.615 10.0775H153.616V11.077H154.615V10.0775ZM165.298 10.0775H166.297V9.07804H165.298V10.0775ZM165.298 16.7942V17.7937H166.297V16.7942H165.298ZM154.615 16.7942V15.7947H153.616V16.7942H154.615ZM154.615 19.3529H153.616V20.3524H154.615V19.3529ZM165.298 19.3529H166.297V18.3534H165.298V19.3529ZM165.298 25.9736V26.9731H166.297V25.9736H165.298ZM146.331 25.9736H145.332V26.9731H146.331V25.9736ZM146.331 0.898116V-0.101386H145.332V0.898116H146.331ZM164.298 0.898116V7.51882H166.297V0.898116H164.298ZM165.298 6.51932H154.615V8.51832H165.298V6.51932ZM153.616 7.51882V10.0775H155.615V7.51882H153.616ZM154.615 11.077H165.298V9.07804H154.615V11.077ZM164.298 10.0775V16.7942H166.297V10.0775H164.298ZM165.298 15.7947H154.615V17.7937H165.298V15.7947ZM153.616 16.7942V19.3529H155.615V16.7942H153.616ZM154.615 20.3524H165.298V18.3534H154.615V20.3524ZM164.298 19.3529V25.9736H166.297V19.3529H164.298ZM165.298 24.9741H146.331V26.9731H165.298V24.9741ZM147.331 25.9736V0.898116H145.332V25.9736H147.331ZM146.331 1.89762H165.298V-0.101386H146.331V1.89762ZM179.307 19.3529V20.3524H180.306V19.3529H179.307ZM179.307 16.7942H180.306V15.7947H179.307V16.7942ZM167.664 16.7942H166.665V17.7937H167.664V16.7942ZM167.664 0.898116V-0.101386H166.665V0.898116H167.664ZM187.399 0.898116H188.398V-0.101386H187.399V0.898116ZM187.399 7.51882V8.51832H188.398V7.51882H187.399ZM175.756 7.51882V6.51932H174.757V7.51882H175.756ZM175.756 10.0775H174.757V11.077H175.756V10.0775ZM187.399 10.0775H188.398V9.07804H187.399V10.0775ZM187.399 25.9736V26.9731H188.398V25.9736H187.399ZM167.664 25.9736H166.665V26.9731H167.664V25.9736ZM167.664 19.3529V18.3534H166.665V19.3529H167.664ZM180.306 19.3529V16.7942H178.307V19.3529H180.306ZM179.307 15.7947H167.664V17.7937H179.307V15.7947ZM168.664 16.7942V0.898116H166.665V16.7942H168.664ZM167.664 1.89762H187.399V-0.101386H167.664V1.89762ZM186.399 0.898116V7.51882H188.398V0.898116H186.399ZM187.399 6.51932H175.756V8.51832H187.399V6.51932ZM174.757 7.51882V10.0775H176.756V7.51882H174.757ZM175.756 11.077H187.399V9.07804H175.756V11.077ZM186.399 10.0775V25.9736H188.398V10.0775H186.399ZM187.399 24.9741H167.664V26.9731H187.399V24.9741ZM168.664 25.9736V19.3529H166.665V25.9736H168.664ZM167.664 20.3524H179.307V18.3534H167.664V20.3524Z" fill="black" mask="url(#path-1-outside-1_0_737)"/>
</g>
<defs>
<filter id="filter0_d_0_737" x="0.528809" y="0.898193" width="189.868" height="28.5217" filterUnits="userSpaceOnUse" color-interpolation-filters="sRGB">
<feFlood flood-opacity="0" result="BackgroundImageFix"/>
<feColorMatrix in="SourceAlpha" type="matrix" values="0 0 0 0 0 0 0 0 0 0 0 0 0 0 0 0 0 0 127 0" result="hardAlpha"/>
<feOffset dx="2.99851" dy="2.99851"/>
<feComposite in2="hardAlpha" operator="out"/>
<feColorMatrix type="matrix" values="0 0 0 0 0.0681465 0 0 0 0 0.2625 0 0 0 0 0.0371875 0 0 0 1 0"/>
<feBlend mode="normal" in2="BackgroundImageFix" result="effect1_dropShadow_0_737"/>
<feBlend mode="normal" in="SourceGraphic" in2="effect1_dropShadow_0_737" result="shape"/>
</filter>
</defs>
</svg>
