<svg width="89" height="89" viewBox="0 0 89 89" fill="none" xmlns="http://www.w3.org/2000/svg">
<rect width="5.55504" height="5.55504" transform="matrix(-4.37114e-08 -1 -1 4.37114e-08 88.8807 11.1101)" fill="#D9D9D9"/>
<rect width="5.55504" height="5.55504" transform="matrix(-4.37114e-08 -1 -1 4.37114e-08 88.8807 11.1101)" fill="#D9D9D9"/>
<rect width="5.55504" height="5.55504" transform="matrix(-4.37114e-08 -1 -1 4.37114e-08 88.8807 11.1101)" fill="#D9D9D9"/>
<rect width="5.55504" height="5.55504" transform="matrix(-4.37114e-08 -1 -1 4.37114e-08 88.8807 11.1101)" fill="#0A3F37"/>
<rect width="5.55504" height="5.55504" transform="matrix(-4.37114e-08 -1 -1 4.37114e-08 83.3256 5.55505)" fill="#0A3F37"/>
<rect width="5.55504" height="5.55504" transform="matrix(-4.37114e-08 -1 -1 4.37114e-08 88.8807 5.55505)" fill="#0A3F37"/>
<rect width="5.55504" height="5.55504" transform="matrix(-4.37114e-08 -1 -1 4.37114e-08 88.8807 5.55505)" fill="#0A3F37"/>
<rect width="5.55504" height="5.55504" transform="matrix(-4.37114e-08 -1 -1 4.37114e-08 77.7706 5.55505)" fill="#0A3F37"/>
<rect width="5.55504" height="5.55504" transform="matrix(-4.37114e-08 -1 -1 4.37114e-08 72.2155 11.1101)" fill="#0A3F37"/>
<rect width="5.55504" height="5.55504" transform="matrix(-4.37114e-08 -1 -1 4.37114e-08 66.6607 16.6652)" fill="#0A3F37"/>
<rect width="5.55504" height="5.55504" transform="matrix(-4.37114e-08 -1 -1 4.37114e-08 61.1056 22.2202)" fill="#0A3F37"/>
<rect width="5.55504" height="5.55504" transform="matrix(-4.37114e-08 -1 -1 4.37114e-08 55.5505 27.7751)" fill="#0A3F37"/>
<rect width="5.55504" height="5.55504" transform="matrix(-4.37114e-08 -1 -1 4.37114e-08 49.9954 33.3302)" fill="#0A3F37"/>
<rect width="5.55504" height="5.55504" transform="matrix(-4.37114e-08 -1 -1 4.37114e-08 44.4403 38.8853)" fill="#0A3F37"/>
<rect width="5.55504" height="5.55504" transform="matrix(-4.37114e-08 -1 -1 4.37114e-08 38.8853 44.4404)" fill="#0A3F37"/>
<rect width="5.55504" height="5.55504" transform="matrix(-4.37114e-08 -1 -1 4.37114e-08 83.3256 16.6652)" fill="#33E7C4"/>
<rect width="5.55504" height="5.55504" transform="matrix(-4.37114e-08 -1 -1 4.37114e-08 77.7705 22.2202)" fill="#33E7C4"/>
<rect width="5.55504" height="5.55504" transform="matrix(-4.37114e-08 -1 -1 4.37114e-08 72.2155 27.7753)" fill="#33E7C4"/>
<rect width="5.55504" height="5.55504" transform="matrix(-4.37114e-08 -1 -1 4.37114e-08 66.6607 33.3302)" fill="#33E7C4"/>
<rect width="5.55504" height="5.55504" transform="matrix(-4.37114e-08 -1 -1 4.37114e-08 61.1056 38.8853)" fill="#33E7C4"/>
<rect width="5.55504" height="5.55504" transform="matrix(-4.37114e-08 -1 -1 4.37114e-08 55.5505 44.4404)" fill="#33E7C4"/>
<rect width="5.55504" height="5.55504" transform="matrix(-4.37114e-08 -1 -1 4.37114e-08 49.9954 49.9954)" fill="#33E7C4"/>
<rect width="5.55504" height="5.55504" transform="matrix(-4.37114e-08 -1 -1 4.37114e-08 44.4403 55.5504)" fill="#33E7C4"/>
<rect width="5.55504" height="5.55504" transform="matrix(-4.37114e-08 -1 -1 4.37114e-08 77.7705 11.1101)" fill="#33E7C4"/>
<rect width="5.55504" height="5.55504" transform="matrix(-4.37114e-08 -1 -1 4.37114e-08 72.2158 16.6652)" fill="#33E7C4"/>
<rect width="5.55504" height="5.55504" transform="matrix(-4.37114e-08 -1 -1 4.37114e-08 66.6604 22.2202)" fill="#33E7C4"/>
<rect width="5.55504" height="5.55504" transform="matrix(-4.37114e-08 -1 -1 4.37114e-08 61.1056 27.7753)" fill="#33E7C4"/>
<rect width="5.55504" height="5.55504" transform="matrix(-4.37114e-08 -1 -1 4.37114e-08 55.5505 33.3302)" fill="#33E7C4"/>
<rect width="5.55504" height="5.55504" transform="matrix(-4.37114e-08 -1 -1 4.37114e-08 49.9954 38.8853)" fill="#33E7C4"/>
<rect width="5.55504" height="5.55504" transform="matrix(-4.37114e-08 -1 -1 4.37114e-08 44.4403 44.4404)" fill="#33E7C4"/>
<rect width="5.55504" height="5.55504" transform="matrix(-4.37114e-08 -1 -1 4.37114e-08 38.8853 49.9954)" fill="#33E7C4"/>
<rect width="5.55504" height="5.55504" transform="matrix(-4.37114e-08 -1 -1 4.37114e-08 83.3256 11.1102)" fill="#2DC1A7"/>
<rect width="5.55504" height="5.55504" transform="matrix(-4.37114e-08 -1 -1 4.37114e-08 77.7705 16.6652)" fill="#2DC1A7"/>
<rect width="5.55504" height="5.55504" transform="matrix(-4.37114e-08 -1 -1 4.37114e-08 72.2155 22.2202)" fill="#2DC1A7"/>
<rect width="5.55504" height="5.55504" transform="matrix(-4.37114e-08 -1 -1 4.37114e-08 66.6607 27.7753)" fill="#2DC1A7"/>
<rect width="5.55504" height="5.55504" transform="matrix(-4.37114e-08 -1 -1 4.37114e-08 61.1056 33.3302)" fill="#2DC1A7"/>
<rect width="5.55504" height="5.55504" transform="matrix(-4.37114e-08 -1 -1 4.37114e-08 55.5505 38.8853)" fill="#2DC1A7"/>
<rect width="5.55504" height="5.55504" transform="matrix(-4.37114e-08 -1 -1 4.37114e-08 49.9954 44.4404)" fill="#2DC1A7"/>
<rect width="5.55504" height="5.55504" transform="matrix(-4.37114e-08 -1 -1 4.37114e-08 44.4403 49.9955)" fill="#2DC1A7"/>
<rect width="5.55504" height="5.55504" transform="matrix(-4.37114e-08 -1 -1 4.37114e-08 33.3302 49.9955)" fill="#06241C"/>
<rect width="5.55504" height="5.55504" transform="matrix(-4.37114e-08 -1 -1 4.37114e-08 33.3305 55.5504)" fill="#06241C"/>
<rect width="5.55504" height="5.55504" transform="matrix(-4.37114e-08 -1 -1 4.37114e-08 38.8853 61.1055)" fill="#06241C"/>
<rect width="5.55504" height="5.55504" transform="matrix(-4.37114e-08 -1 -1 4.37114e-08 44.4403 61.1055)" fill="#06241C"/>
<rect width="5.55504" height="5.55504" transform="matrix(-4.37114e-08 -1 -1 4.37114e-08 49.9954 66.6606)" fill="#06241C"/>
<rect width="5.55504" height="5.55504" transform="matrix(-4.37114e-08 -1 -1 4.37114e-08 55.5505 72.2155)" fill="#06241C"/>
<rect width="5.55504" height="5.55504" transform="matrix(-4.37114e-08 -1 -1 4.37114e-08 55.5505 77.7706)" fill="#06241C"/>
<rect width="5.55504" height="5.55504" transform="matrix(-4.37114e-08 -1 -1 4.37114e-08 33.3305 61.1055)" fill="#1B8A71"/>
<rect width="5.55504" height="5.55504" transform="matrix(-4.37114e-08 -1 -1 4.37114e-08 38.8853 66.6606)" fill="#1B8A71"/>
<rect width="5.55504" height="5.55504" transform="matrix(-4.37114e-08 -1 -1 4.37114e-08 44.4403 66.6604)" fill="#126253"/>
<rect width="5.55504" height="5.55504" transform="matrix(-4.37114e-08 -1 -1 4.37114e-08 27.7754 55.5504)" fill="#1B8A71"/>
<rect width="5.55504" height="5.55504" transform="matrix(-4.37114e-08 -1 -1 4.37114e-08 27.7754 49.9954)" fill="#126253"/>
<rect width="5.55504" height="5.55504" transform="matrix(-4.37114e-08 -1 -1 4.37114e-08 22.2203 44.4404)" fill="#126253"/>
<rect width="5.55504" height="5.55504" transform="matrix(-4.37114e-08 -1 -1 4.37114e-08 49.9954 72.2155)" fill="#126253"/>
<rect width="5.55504" height="5.55504" transform="matrix(-4.37114e-08 -1 -1 4.37114e-08 49.9954 77.7706)" fill="#06241C"/>
<rect width="5.55504" height="5.55504" transform="matrix(-4.37114e-08 -1 -1 4.37114e-08 44.4403 72.2155)" fill="#06241C"/>
<rect width="5.55504" height="5.55504" transform="matrix(-4.37114e-08 -1 -1 4.37114e-08 38.8853 72.2155)" fill="#06241C"/>
<rect width="5.55504" height="5.55504" transform="matrix(-4.37114e-08 -1 -1 4.37114e-08 27.7754 66.6604)" fill="#634D1C"/>
<rect width="5.55504" height="5.55504" transform="matrix(-4.37114e-08 -1 -1 4.37114e-08 22.2203 66.6604)" fill="#4C3515"/>
<rect width="5.55504" height="5.55504" transform="matrix(-4.37114e-08 -1 -1 4.37114e-08 16.6652 72.2155)" fill="#4C3515"/>
<rect width="5.55504" height="5.55504" transform="matrix(-4.37114e-08 -1 -1 4.37114e-08 16.6652 77.7706)" fill="#634D1C"/>
<rect width="5.55504" height="5.55504" transform="matrix(-4.37114e-08 -1 -1 4.37114e-08 11.1101 77.7706)" fill="#04241E"/>
<rect width="5.55504" height="5.55504" transform="matrix(-4.37114e-08 -1 -1 4.37114e-08 5.55504 77.7706)" fill="#04241E"/>
<rect width="5.55504" height="5.55504" transform="matrix(-4.37114e-08 -1 -1 4.37114e-08 5.55504 83.3257)" fill="#04241E"/>
<rect width="5.55504" height="5.55504" transform="matrix(-4.37114e-08 -1 -1 4.37114e-08 5.55504 88.8806)" fill="#04241E"/>
<rect width="5.55504" height="5.55504" transform="matrix(-4.37114e-08 -1 -1 4.37114e-08 11.1101 88.8806)" fill="#04241E"/>
<rect width="5.55504" height="5.55504" transform="matrix(-4.37114e-08 -1 -1 4.37114e-08 16.6652 88.8806)" fill="#04241E"/>
<rect width="5.55504" height="5.55504" transform="matrix(-4.37114e-08 -1 -1 4.37114e-08 16.6652 83.3257)" fill="#04241E"/>
<rect width="5.55504" height="5.55504" transform="matrix(-4.37114e-08 -1 -1 4.37114e-08 11.1101 83.3256)" fill="#1E8675"/>
<rect width="5.55504" height="5.55504" transform="matrix(-4.37114e-08 -1 -1 4.37114e-08 22.2203 72.2155)" fill="#886428"/>
<rect width="5.55504" height="5.55504" transform="matrix(-4.37114e-08 -1 -1 4.37114e-08 22.2203 77.7706)" fill="#261E0B"/>
<rect width="5.55504" height="5.55504" transform="matrix(-4.37114e-08 -1 -1 4.37114e-08 27.7754 72.2155)" fill="#261E0B"/>
<rect width="5.55504" height="5.55504" transform="matrix(-4.37114e-08 -1 -1 4.37114e-08 33.3305 66.6604)" fill="#06241C"/>
<rect width="5.55504" height="5.55504" transform="matrix(-4.37114e-08 -1 -1 4.37114e-08 27.7754 61.1055)" fill="#06241C"/>
<rect width="5.55504" height="5.55504" transform="matrix(-4.37114e-08 -1 -1 4.37114e-08 22.2203 55.5504)" fill="#06241C"/>
<rect width="5.55504" height="5.55504" transform="matrix(-4.37114e-08 -1 -1 4.37114e-08 22.2203 49.9954)" fill="#06241C"/>
<rect width="5.55504" height="5.55504" transform="matrix(-4.37114e-08 -1 -1 4.37114e-08 16.6652 44.4404)" fill="#06241C"/>
<rect width="5.55504" height="5.55504" transform="matrix(-4.37114e-08 -1 -1 4.37114e-08 16.6652 38.8853)" fill="#06241C"/>
<rect width="5.55504" height="5.55504" transform="matrix(-4.37114e-08 -1 -1 4.37114e-08 22.2203 38.8853)" fill="#06241C"/>
<rect width="5.55504" height="5.55504" transform="matrix(-4.37114e-08 -1 -1 4.37114e-08 27.7754 44.4404)" fill="#06241C"/>
<rect width="5.55504" height="5.55504" transform="matrix(-4.37114e-08 -1 -1 4.37114e-08 38.8853 55.5504)" fill="#2DC1A7"/>
<rect width="5.55504" height="5.55504" transform="matrix(-4.37114e-08 -1 -1 4.37114e-08 83.3256 22.2202)" fill="#0A3F37"/>
<rect width="5.55504" height="5.55504" transform="matrix(-4.37114e-08 -1 -1 4.37114e-08 77.7706 27.7753)" fill="#0A3F37"/>
<rect width="5.55504" height="5.55504" transform="matrix(-4.37114e-08 -1 -1 4.37114e-08 72.2155 33.3302)" fill="#0A3F37"/>
<rect width="5.55504" height="5.55504" transform="matrix(-4.37114e-08 -1 -1 4.37114e-08 66.6607 38.8853)" fill="#0A3F37"/>
<rect width="5.55504" height="5.55504" transform="matrix(-4.37114e-08 -1 -1 4.37114e-08 61.1056 44.4404)" fill="#0A3F37"/>
<rect width="5.55504" height="5.55504" transform="matrix(-4.37114e-08 -1 -1 4.37114e-08 55.5505 49.9954)" fill="#0A3F37"/>
<rect width="5.55504" height="5.55504" transform="matrix(-4.37114e-08 -1 -1 4.37114e-08 49.9954 55.5504)" fill="#0A3F37"/>
<rect width="5.55504" height="5.55504" transform="matrix(-4.37114e-08 -1 -1 4.37114e-08 88.8807 16.6652)" fill="#0A3F37"/>
</svg>
